IKResults
version=1
nRows=58
nColumns=5
inDegrees=yes

Units are S.I. units (second, meters, Newtons, ...)
If the header above contains a line with 'inDegrees', this indicates whether rotational values are in degrees (yes) or radians (no).

endheader
time	r_shoulder_elev	r_shoulder_side	r_elbow_flex	r_elbow_rotation
      0.00000000	    101.28045061	     28.46079869	     10.28939845	      3.49256598
      0.01667000	    101.16153164	     26.11745942	      9.74708236	      3.49392267
      0.03333000	    101.43930912	     25.23594599	      8.69823402	      3.49123982
      0.05000000	    102.08646850	     28.69101136	      7.50463172	      3.49799674
      0.06667000	    102.05115617	     28.44537751	      7.38135638	      3.45295356
      0.08333000	    102.07733250	     28.89081223	      7.34140340	      3.45111920
      0.10000000	    101.98983262	     28.91783346	      7.60167469	      3.55541630
      0.11667000	    102.04916763	     29.69685652	      7.82306827	      3.49137461
      0.13333000	    101.99443275	     29.38087750	      8.00329166	      3.55807108
      0.15000000	    101.70652856	     28.57329198	      8.44905478	      3.48801963
      0.16667000	    101.35718123	     27.20591061	      8.95176542	      3.48930426
      0.18333000	    101.10483816	     26.39593258	      9.42688206	      3.48912206
      0.20000000	    100.85614766	     25.44968962	      9.70461204	      3.59704065
      0.21667000	    100.54742400	     24.11152629	     10.21820102	      3.48885586
      0.23333000	    100.61385863	     25.08305616	     10.33912421	      3.52873398
      0.25000000	    100.53065857	     25.07119458	     10.56693252	      3.59459277
      0.26667000	    100.53419833	     25.66085669	     10.66162111	      3.49072503
      0.28333000	    100.69101308	     28.00686446	     10.55744685	      3.44876469
      0.30000000	    100.72864824	     28.49123971	     10.55844252	      3.45381935
      0.31667000	    100.55437077	     27.75836131	     10.46954373	      3.41916053
      0.33333000	    100.54047200	     28.07694060	     10.22650100	      3.34136118
      0.35000000	    100.46659736	     28.24411276	      9.96958574	      3.49724450
      0.36667000	    100.40028744	     28.41064193	      9.86254441	      3.45681790
      0.38333000	    100.39805442	     28.74788352	      9.76856089	      3.42558957
      0.40000000	    100.40215655	     28.94957887	      9.67815251	      3.40090082
      0.41667000	    100.36715417	     28.83002634	      9.31649654	      3.49750817
      0.43333000	    100.26025069	     28.73181231	      9.00320557	      3.38532211
      0.45000000	    100.12472674	     27.61027994	      8.88296864	      3.49130382
      0.46667000	     99.65088461	     24.98858926	      9.28963384	      3.49013159
      0.48333000	     99.47947496	     24.80616133	      9.45250280	      3.55356919
      0.50000000	     99.37211698	     24.91270455	      9.66683182	      3.49054657
      0.51667000	     99.28444809	     24.96082933	      9.68190962	      3.49825710
      0.53333000	     99.24386171	     24.94101215	      9.36160304	      3.49274907
      0.55000000	     99.20141129	     24.65813464	      8.97613041	      3.49243223
      0.56667000	     99.26080407	     24.81217616	      8.58064695	      3.49323811
      0.58333000	     99.32074469	     25.12513652	      8.38985978	      3.42359738
      0.60000000	     99.46949293	     26.12230740	      8.20808929	      3.49346128
      0.61667000	     99.49638480	     26.43390284	      8.26507506	      3.51185968
      0.63333000	     99.58395000	     27.46076785	      8.32808739	      3.53619572
      0.65000000	     99.61740345	     28.10591276	      8.46828170	      3.57806812
      0.66667000	     99.66711563	     28.92829515	      8.65573567	      3.49181724
      0.68333000	     99.65671333	     29.15526591	      8.78241682	      3.53850521
      0.70000000	     99.61357667	     29.20965518	      8.93608582	      3.57562411
      0.71667000	     99.67105388	     29.80074066	      9.00615803	      3.49028855
      0.73333000	     99.67917038	     30.18390490	      9.10394020	      3.52631031
      0.75000000	     99.67730420	     30.33119813	      9.17512385	      3.54670633
      0.76667000	     99.57911139	     30.08935162	      9.38822469	      3.60760253
      0.78333000	     99.53649807	     30.27919051	      9.58697169	      3.48901516
      0.80000000	     99.45300453	     30.20620545	      9.75793031	      3.54987584
      0.81667000	     99.32927534	     29.96311566	      9.65146363	      3.50258399
      0.83333000	     99.23512775	     29.76462750	      9.60647186	      3.48480416
      0.85000000	     99.16869200	     29.72947039	      9.54322525	      3.46482316
      0.86667000	     99.11859853	     30.07099774	      9.35221007	      3.40211726
      0.88333000	     99.00691641	     29.88917910	      9.28692875	      3.48358979
      0.90000000	     98.95810564	     29.84463451	      9.26617297	      3.47552156
      0.91667000	     98.82745158	     29.71459039	      9.44383698	      3.54107675
      0.93333000	     98.22252547	     26.92940310	      9.87436766	      3.49133062
      0.95000000	     97.69905138	     25.92800329	     10.26790248	      3.48710276
